<?xml version="1.0" encoding="UTF-8"?> <svg xmlns="http://www.w3.org/2000/svg" width="129" height="129" viewBox="0 0 129 129" fill="none"> <g clip-path="url(#clip0_1_8)"> <mask id="mask0_1_8" style="mask-type:luminance" maskUnits="userSpaceOnUse" x="0" y="0" width="129" height="129"> <path d="M128.719 0.390625H0.71875V128.391H128.719V0.390625Z" fill="white"></path> </mask> <g mask="url(#mask0_1_8)"> <path d="M7.31875 2.29067C2.91875 5.19067 0.71875 9.29067 0.71875 14.6906C0.71875 17.3906 1.21875 20.4906 1.81875 21.6906C2.41875 22.8906 12.0188 32.9906 23.0188 44.0906L43.2188 64.3906L23.0188 84.5906C12.0188 95.7906 2.41875 105.891 1.81875 107.091C1.21875 108.291 0.71875 111.391 0.71875 114.091C0.71875 122.591 6.51875 128.391 15.0188 128.391C17.7188 128.391 20.8188 127.891 22.0188 127.291C23.2188 126.691 33.3188 117.091 44.5188 106.091L64.7188 85.8906L85.0188 106.091C96.1188 117.091 106.219 126.691 107.419 127.291C108.619 127.891 111.719 128.391 114.419 128.391C122.919 128.391 128.719 122.591 128.719 114.091C128.719 111.391 128.219 108.291 127.619 107.091C127.019 105.891 117.419 95.7906 106.419 84.5906L86.2188 64.3906L106.419 44.0906C117.419 32.9906 127.019 22.8906 127.619 21.6906C128.219 20.4906 128.719 17.3906 128.719 14.6906C128.719 6.19067 122.919 0.390669 114.419 0.390669C111.719 0.390669 108.619 0.890669 107.419 1.49067C106.219 2.09067 96.1188 11.6906 85.0188 22.6906L64.7188 42.8906L44.5188 22.6906C33.3188 11.6906 23.2188 2.09067 22.0188 1.49067C18.5188 -0.309331 10.6188 0.190669 7.31875 2.29067Z" fill="#398050"></path> </g> </g> <defs> <clipPath id="clip0_1_8"> <rect width="129" height="129" fill="white"></rect> </clipPath> </defs> </svg> 